<svg xmlns="http://www.w3.org/2000/svg" xmlns:xlink="http://www.w3.org/1999/xlink" version="1.1" width="256" height="256" viewBox="0 0 256 256" xml:space="preserve">
<desc>Created with Fabric.js 1.7.22</desc>
<defs>
</defs>
<g transform="translate(128 128) scale(0.72 0.72)" style="">
	<g style="stroke: none; stroke-width: 0; stroke-dasharray: none; stroke-linecap: butt; stroke-linejoin: miter; stroke-miterlimit: 10; fill: none; fill-rule: nonzero; opacity: 1;" transform="translate(-175.05 -175.05000000000004) scale(3.89 3.89)" >
	<path d="M 71.797 75.776 h 3.751 c 2.701 0 4.891 -2.19 4.891 -4.891 V 28.659 c 0 -0.34 0.276 -0.616 0.616 -0.616 h 4.192 c 0.598 0 0.845 -0.766 0.36 -1.116 L 47.307 0.714 c -1.391 -0.952 -3.224 -0.952 -4.614 0 L 4.392 26.927 c -0.485 0.35 -0.238 1.116 0.36 1.116 h 4.192 c 0.34 0 0.616 0.276 0.616 0.616 v 42.227 c 0 2.701 2.19 4.891 4.891 4.891 H 71.797 z" style="stroke: none; stroke-width: 1; stroke-dasharray: none; stroke-linecap: butt; stroke-linejoin: miter; stroke-miterlimit: 10; fill: rgb(80,90,140); fill-rule: nonzero; opacity: 1;" transform=" matrix(1 0 0 1 0 0) " stroke-linecap="round" />
	<path d="M 49.962 90 h -9.925 c -7.034 0 -12.737 -5.702 -12.737 -12.737 V 41.424 c 0 -1.685 1.366 -3.05 3.05 -3.05 h 29.298 c 1.685 0 3.05 1.366 3.05 3.05 v 35.839 C 62.699 84.298 56.997 90 49.962 90 z" style="stroke: none; stroke-width: 1; stroke-dasharray: none; stroke-linecap: butt; stroke-linejoin: miter; stroke-miterlimit: 10; fill: rgb(235,235,240); fill-rule: nonzero; opacity: 1;" transform=" matrix(1 0 0 1 0 0) " stroke-linecap="round" />
	<path d="M 45 61.614 c -4.74 0 -8.596 -3.856 -8.596 -8.595 S 40.26 44.423 45 44.423 c 4.739 0 8.595 3.856 8.595 8.596 S 49.739 61.614 45 61.614 z M 45 46.487 c -3.601 0 -6.531 2.93 -6.531 6.531 s 2.93 6.53 6.531 6.53 s 6.53 -2.929 6.53 -6.53 S 48.601 46.487 45 46.487 z" style="stroke: none; stroke-width: 1; stroke-dasharray: none; stroke-linecap: butt; stroke-linejoin: miter; stroke-miterlimit: 10; fill: rgb(125,130,135); fill-rule: nonzero; opacity: 1;" transform=" matrix(1 0 0 1 0 0) " stroke-linecap="round" />
	<path d="M 42.049 71.425 h -4.612 c -0.57 0 -1.033 -0.462 -1.033 -1.033 c 0 -0.571 0.462 -1.033 1.033 -1.033 h 4.612 c 0.57 0 1.033 0.462 1.033 1.033 C 43.081 70.963 42.619 71.425 42.049 71.425 z" style="stroke: none; stroke-width: 1; stroke-dasharray: none; stroke-linecap: butt; stroke-linejoin: miter; stroke-miterlimit: 10; fill: rgb(125,130,135); fill-rule: nonzero; opacity: 1;" transform=" matrix(1 0 0 1 0 0) " stroke-linecap="round" />
	<path d="M 52.563 71.425 h -4.611 c -0.571 0 -1.033 -0.462 -1.033 -1.033 c 0 -0.571 0.462 -1.033 1.033 -1.033 h 4.611 c 0.571 0 1.033 0.462 1.033 1.033 C 53.595 70.963 53.133 71.425 52.563 71.425 z" style="stroke: none; stroke-width: 1; stroke-dasharray: none; stroke-linecap: butt; stroke-linejoin: miter; stroke-miterlimit: 10; fill: rgb(125,130,135); fill-rule: nonzero; opacity: 1;" transform=" matrix(1 0 0 1 0 0) " stroke-linecap="round" />
	<path d="M 51.072 32.874 c -0.571 0 -1.033 -0.462 -1.033 -1.033 c 0 -2.779 -2.261 -5.04 -5.04 -5.04 c -2.779 0 -5.039 2.261 -5.039 5.04 c 0 0.57 -0.462 1.033 -1.033 1.033 c -0.57 0 -1.033 -0.462 -1.033 -1.033 c 0 -3.917 3.187 -7.105 7.104 -7.105 s 7.105 3.187 7.105 7.105 C 52.105 32.411 51.643 32.874 51.072 32.874 z" style="stroke: none; stroke-width: 1; stroke-dasharray: none; stroke-linecap: butt; stroke-linejoin: miter; stroke-miterlimit: 10; fill: rgb(235,235,240); fill-rule: nonzero; opacity: 1;" transform=" matrix(1 0 0 1 0 0) " stroke-linecap="round" />
	<path d="M 58.894 33.008 c -0.571 0 -1.033 -0.462 -1.033 -1.033 c 0 -7.092 -5.77 -12.862 -12.862 -12.862 s -12.862 5.77 -12.862 12.862 c 0 0.57 -0.462 1.033 -1.033 1.033 s -1.033 -0.462 -1.033 -1.033 c 0 -8.231 6.696 -14.927 14.927 -14.927 c 8.23 0 14.927 6.696 14.927 14.927 C 59.927 32.546 59.465 33.008 58.894 33.008 z" style="stroke: none; stroke-width: 1; stroke-dasharray: none; stroke-linecap: butt; stroke-linejoin: miter; stroke-miterlimit: 10; fill: rgb(235,235,240); fill-rule: nonzero; opacity: 1;" transform=" matrix(1 0 0 1 0 0) " stroke-linecap="round" />
	<path d="M 42.049 77.727 h -4.612 c -0.57 0 -1.033 -0.462 -1.033 -1.033 s 0.462 -1.033 1.033 -1.033 h 4.612 c 0.57 0 1.033 0.462 1.033 1.033 S 42.619 77.727 42.049 77.727 z" style="stroke: none; stroke-width: 1; stroke-dasharray: none; stroke-linecap: butt; stroke-linejoin: miter; stroke-miterlimit: 10; fill: rgb(125,130,135); fill-rule: nonzero; opacity: 1;" transform=" matrix(1 0 0 1 0 0) " stroke-linecap="round" />
	<path d="M 52.563 77.727 h -4.611 c -0.571 0 -1.033 -0.462 -1.033 -1.033 s 0.462 -1.033 1.033 -1.033 h 4.611 c 0.571 0 1.033 0.462 1.033 1.033 S 53.133 77.727 52.563 77.727 z" style="stroke: none; stroke-width: 1; stroke-dasharray: none; stroke-linecap: butt; stroke-linejoin: miter; stroke-miterlimit: 10; fill: rgb(125,130,135); fill-rule: nonzero; opacity: 1;" transform=" matrix(1 0 0 1 0 0) " stroke-linecap="round" />
	<circle cx="45.001" cy="53.021" r="2.521" style="stroke: none; stroke-width: 1; stroke-dasharray: none; stroke-linecap: butt; stroke-linejoin: miter; stroke-miterlimit: 10; fill: rgb(125,130,135); fill-rule: nonzero; opacity: 1;" transform="  matrix(1 0 0 1 0 0) "/>
</g>
</g>
</svg>