<svg xmlns="http://www.w3.org/2000/svg" xmlns:xlink="http://www.w3.org/1999/xlink" version="1.1" width="256" height="256" viewBox="0 0 256 256" xml:space="preserve">
<desc>Created with Fabric.js 1.7.22</desc>
<defs>
</defs>
<g transform="translate(128 128) scale(0.72 0.72)" style="">
	<g style="stroke: none; stroke-width: 0; stroke-dasharray: none; stroke-linecap: butt; stroke-linejoin: miter; stroke-miterlimit: 10; fill: none; fill-rule: nonzero; opacity: 1;" transform="translate(-175.05 -175.05000000000004) scale(3.89 3.89)" >
	<circle cx="31.536" cy="69.546" r="3.646" style="stroke: none; stroke-width: 1; stroke-dasharray: none; stroke-linecap: butt; stroke-linejoin: miter; stroke-miterlimit: 10; fill: rgb(100,107,121); fill-rule: nonzero; opacity: 1;" transform="  matrix(1 0 0 1 0 0) "/>
	<circle cx="44.996" cy="13.546" r="3.646" style="stroke: none; stroke-width: 1; stroke-dasharray: none; stroke-linecap: butt; stroke-linejoin: miter; stroke-miterlimit: 10; fill: rgb(251,212,10); fill-rule: nonzero; opacity: 1;" transform="  matrix(1 0 0 1 0 0) "/>
	<path d="M 38.427 11.153 c 0.978 -2.688 3.547 -4.61 6.573 -4.61 s 5.595 1.923 6.573 4.61 h 9.446 C 58.581 4.661 52.317 0 45 0 S 31.419 4.661 28.982 11.153 H 38.427 z" style="stroke: none; stroke-width: 1; stroke-dasharray: none; stroke-linecap: butt; stroke-linejoin: miter; stroke-miterlimit: 10; fill: rgb(110,177,225); fill-rule: nonzero; opacity: 1;" transform=" matrix(1 0 0 1 0 0) " stroke-linecap="round" />
	<path d="M 51.387 16.399 c -1.093 2.441 -3.539 4.144 -6.387 4.144 s -5.293 -1.703 -6.387 -4.144 H 27.919 c -0.01 0.24 -0.037 0.476 -0.037 0.719 v 6.139 c 0 9.415 7.703 17.118 17.118 17.118 s 17.118 -7.703 17.118 -17.118 v -6.139 c 0 -0.243 -0.026 -0.479 -0.037 -0.719 H 51.387 z" style="stroke: none; stroke-width: 1; stroke-dasharray: none; stroke-linecap: butt; stroke-linejoin: miter; stroke-miterlimit: 10; fill: rgb(110,177,225); fill-rule: nonzero; opacity: 1;" transform=" matrix(1 0 0 1 0 0) " stroke-linecap="round" />
	<path d="M 61.697 44.811 v 22.554 c 3.684 1.444 6.47 5.478 7.031 10.407 c 0.941 0.761 1.554 1.911 1.554 3.215 c 0 2.294 -1.859 4.153 -4.153 4.153 s -4.153 -1.859 -4.153 -4.153 c 0 -1.301 0.611 -2.448 1.547 -3.21 c -0.549 -3.299 -2.534 -5.827 -4.827 -5.827 c -2.315 0 -4.317 2.578 -4.843 5.926 c 0.868 0.761 1.428 1.866 1.428 3.111 c 0 2.294 -1.859 4.153 -4.153 4.153 s -4.153 -1.859 -4.153 -4.153 c 0 -1.374 0.675 -2.582 1.703 -3.338 c 0.593 -4.874 3.364 -8.852 7.018 -10.284 V 42.91 c -0.351 -0.067 -0.703 -0.13 -1.058 -0.183 c -2.896 1.5 -6.169 2.363 -9.639 2.363 s -6.743 -0.863 -9.639 -2.363 c -0.223 0.033 -0.442 0.076 -0.663 0.115 v 19.233 c 2.868 1.184 4.893 4.007 4.893 7.297 c 0 4.352 -3.541 7.893 -7.893 7.893 s -7.893 -3.541 -7.893 -7.893 c 0 -3.29 2.025 -6.113 4.893 -7.297 V 44.638 c -9.557 4.142 -16.289 13.674 -16.289 24.708 v 17.707 c 0 1.621 1.326 2.946 2.946 2.946 h 59.29 c 1.621 0 2.946 -1.326 2.946 -2.946 V 69.346 C 77.591 58.465 71.045 49.042 61.697 44.811 z" style="stroke: none; stroke-width: 1; stroke-dasharray: none; stroke-linecap: butt; stroke-linejoin: miter; stroke-miterlimit: 10; fill: rgb(110,177,225); fill-rule: nonzero; opacity: 1;" transform=" matrix(1 0 0 1 0 0) " stroke-linecap="round" />
	<circle cx="51.16" cy="81.18" r="2" style="stroke: none; stroke-width: 1; stroke-dasharray: none; stroke-linecap: butt; stroke-linejoin: miter; stroke-miterlimit: 10; fill: rgb(100,107,121); fill-rule: nonzero; opacity: 1;" transform="  matrix(1 0 0 1 0 0) "/>
	<circle cx="66.16" cy="81.18" r="2" style="stroke: none; stroke-width: 1; stroke-dasharray: none; stroke-linecap: butt; stroke-linejoin: miter; stroke-miterlimit: 10; fill: rgb(100,107,121); fill-rule: nonzero; opacity: 1;" transform="  matrix(1 0 0 1 0 0) "/>
</g>
</g>
</svg>